<svg xmlns="http://www.w3.org/2000/svg" viewBox="0 0 900 520" fill="none">
  <rect width="900" height="520" rx="28" fill="#08111F"/>
  <g stroke="#223149" stroke-width="1.5" opacity="0.9">
    <line x1="70" y1="110" x2="830" y2="110"/>
    <line x1="70" y1="190" x2="830" y2="190"/>
    <line x1="70" y1="270" x2="830" y2="270"/>
    <line x1="70" y1="350" x2="830" y2="350"/>
    <line x1="70" y1="430" x2="830" y2="430"/>
  </g>
  <rect x="100" y="70" width="700" height="380" rx="20" fill="#101B2B" stroke="#2E4058" stroke-width="2"/><line x1="205" y1="318" x2="700" y2="318" stroke="#F8FAFC" stroke-width="5" stroke-dasharray="14 12"/>
    <line x1="305" y1="312" x2="305" y2="390" stroke="#F8FAFC" stroke-width="8" stroke-linecap="round"/>
    <rect x="280" y="330" width="50" height="35" fill="#EF4444"/>

    <line x1="415" y1="182" x2="415" y2="290" stroke="#F8FAFC" stroke-width="8" stroke-linecap="round"/>
    <rect x="384" y="205" width="62" height="60" fill="#22C55E"/>

    <line x1="510" y1="135" x2="510" y2="260" stroke="#F8FAFC" stroke-width="8" stroke-linecap="round"/>
    <rect x="476" y="160" width="68" height="75" fill="#22C55E"/>

    <line x1="610" y1="98" x2="610" y2="238" stroke="#F8FAFC" stroke-width="8" stroke-linecap="round"/>
    <rect x="573" y="120" width="74" height="90" fill="#22C55E"/>

</svg>
