<svg xmlns="http://www.w3.org/2000/svg" width="600" height="1533" viewBox="0 0 600 1533" role="img"><title>Compare the planned distance with recent ranges</title><desc>Five-minute candles • blue pane = ATR14 • red dashed = stop reference $4.82. Enlarged labels for small screens.</desc><rect width="600" height="1533" rx="12" fill="#091321"/><text x="20" y="77" font-family="Arial,sans-serif" font-size="40" fill="#e4edf7">Compare the planned distance</text><text x="20" y="126" font-family="Arial,sans-serif" font-size="40" fill="#e4edf7">with recent ranges</text><text x="20" y="176" font-family="Arial,sans-serif" font-size="28" fill="#a9bdd4">Five-minute candles • blue pane =</text><text x="20" y="213" font-family="Arial,sans-serif" font-size="28" fill="#a9bdd4">ATR14 • red dashed = stop reference</text><text x="20" y="250" font-family="Arial,sans-serif" font-size="28" fill="#a9bdd4">$4.82</text><svg x="20" y="271" width="480" height="392" viewBox="30 110.0 1040 280.0" preserveAspectRatio="none"><rect xmlns="http://www.w3.org/2000/svg" x="30" y="110" width="1040" height="280" rx="8" fill="#101e30" /><path xmlns="http://www.w3.org/2000/svg" d="M 46 312.0 H 992" stroke="#25374d" /><path xmlns="http://www.w3.org/2000/svg" d="M 46 266.00000000000017 H 992" stroke="#25374d" /><path xmlns="http://www.w3.org/2000/svg" d="M 46 220.0 H 992" stroke="#25374d" /><path xmlns="http://www.w3.org/2000/svg" d="M 46 173.99999999999983 H 992" stroke="#25374d" /><path xmlns="http://www.w3.org/2000/svg" d="M 46 128.0 H 992" stroke="#25374d" /><path xmlns="http://www.w3.org/2000/svg" d="M 46 293.01587301587296 H 992" stroke="#f06a76" stroke-dasharray="6 5" /><path xmlns="http://www.w3.org/2000/svg" d="M 46 284.90299823633165 H 992" stroke="#ffcf63" stroke-dasharray="6 5" /><path xmlns="http://www.w3.org/2000/svg" d="M 46 240.28218694885356 H 992" stroke="#45c1ff" stroke-dasharray="6 5" /><path xmlns="http://www.w3.org/2000/svg" d="M 93.3 185.52028218694886 V 234.19753086419757" stroke="#22c88a" stroke-width="2" /><rect xmlns="http://www.w3.org/2000/svg" x="83.8" y="187.54850088183417" width="19" height="29.22982330381302" fill="#22c88a" /><rect xmlns="http://www.w3.org/2000/svg" x="83.8" y="338.7837837837838" width="19" height="31.216216216216218" fill="#22c88a" opacity=".7" /><path xmlns="http://www.w3.org/2000/svg" d="M 187.89999999999998 183.49206349206355 V 232.16931216931226" stroke="#f06a76" stroke-width="2" /><rect xmlns="http://www.w3.org/2000/svg" x="178.39999999999998" y="187.54850088183417" width="19" height="16.225749559082914" fill="#f06a76" /><rect xmlns="http://www.w3.org/2000/svg" x="178.39999999999998" y="335.0" width="19" height="35.0" fill="#f06a76" opacity=".7" /><path xmlns="http://www.w3.org/2000/svg" d="M 282.5 191.6049382716048 V 240.28218694885356" stroke="#f06a76" stroke-width="2" /><rect xmlns="http://www.w3.org/2000/svg" x="273.0" y="203.7742504409171" width="19" height="24.338624338624186" fill="#f06a76" /><rect xmlns="http://www.w3.org/2000/svg" x="273.0" y="346.35135135135135" width="19" height="23.64864864864865" fill="#f06a76" opacity=".7" /><path xmlns="http://www.w3.org/2000/svg" d="M 377.09999999999997 220.0 V 268.67724867724877" stroke="#f06a76" stroke-width="2" /><rect xmlns="http://www.w3.org/2000/svg" x="367.59999999999997" y="228.11287477954127" width="19" height="32.451499118165856" fill="#f06a76" /><rect xmlns="http://www.w3.org/2000/svg" x="367.59999999999997" y="342.56756756756755" width="19" height="27.432432432432428" fill="#f06a76" opacity=".7" /><path xmlns="http://www.w3.org/2000/svg" d="M 471.7 236.2257495590829 V 284.90299823633165" stroke="#f06a76" stroke-width="2" /><rect xmlns="http://www.w3.org/2000/svg" x="462.2" y="260.5643738977071" width="19" height="4.056437389770963" fill="#f06a76" /><rect xmlns="http://www.w3.org/2000/svg" x="462.2" y="338.7837837837838" width="19" height="31.216216216216218" fill="#f06a76" opacity=".7" /><path xmlns="http://www.w3.org/2000/svg" d="M 566.3 236.2257495590829 V 284.90299823633165" stroke="#22c88a" stroke-width="2" /><rect xmlns="http://www.w3.org/2000/svg" x="556.8" y="240.28218694885356" width="19" height="24.338624338624527" fill="#22c88a" /><rect xmlns="http://www.w3.org/2000/svg" x="556.8" y="335.0" width="19" height="35.0" fill="#22c88a" opacity=".7" /><path xmlns="http://www.w3.org/2000/svg" d="M 660.9 215.94356261022938 V 264.6208112874781" stroke="#22c88a" stroke-width="2" /><rect xmlns="http://www.w3.org/2000/svg" x="651.4" y="220.0" width="19" height="20.282186948853564" fill="#22c88a" /><rect xmlns="http://www.w3.org/2000/svg" x="651.4" y="346.35135135135135" width="19" height="23.64864864864865" fill="#22c88a" opacity=".7" /><path xmlns="http://www.w3.org/2000/svg" d="M 755.5 195.6613756613758 V 228.11287477954127" stroke="#22c88a" stroke-width="2" /><rect xmlns="http://www.w3.org/2000/svg" x="746.0" y="203.7742504409171" width="19" height="16.225749559082914" fill="#22c88a" /><rect xmlns="http://www.w3.org/2000/svg" x="746.0" y="342.56756756756755" width="19" height="27.432432432432428" fill="#22c88a" opacity=".7" /><path xmlns="http://www.w3.org/2000/svg" d="M 850.0999999999999 163.20987654320996 V 211.88712522045836" stroke="#22c88a" stroke-width="2" /><rect xmlns="http://www.w3.org/2000/svg" x="840.5999999999999" y="171.32275132275126" width="19" height="32.45149911816583" fill="#22c88a" /><rect xmlns="http://www.w3.org/2000/svg" x="840.5999999999999" y="338.7837837837838" width="19" height="31.216216216216218" fill="#22c88a" opacity=".7" /><path xmlns="http://www.w3.org/2000/svg" d="M 944.6999999999999 146.98412698412707 V 179.43562610229253" stroke="#22c88a" stroke-width="2" /><rect xmlns="http://www.w3.org/2000/svg" x="935.1999999999999" y="155.09700176366835" width="19" height="16.225749559082914" fill="#22c88a" /><rect xmlns="http://www.w3.org/2000/svg" x="935.1999999999999" y="335.0" width="19" height="35.0" fill="#22c88a" opacity=".7" /><circle xmlns="http://www.w3.org/2000/svg" cx="660.9" cy="220.0" r="4" fill="#ffcf63" /><path xmlns="http://www.w3.org/2000/svg" d="M 660.9 220.0 L 630.9 184.0" stroke="#ffcf63" /></svg><g transform="translate(20 271)"><text x="490" y="295.79999999999995" font-family="Arial,sans-serif" font-size="28" fill="#e4edf7">$4.77</text><text x="490" y="231.40000000000023" font-family="Arial,sans-serif" font-size="28" fill="#e4edf7">$4.89</text><text x="490" y="167.0" font-family="Arial,sans-serif" font-size="28" fill="#e4edf7">$5.00</text><text x="490" y="102.59999999999975" font-family="Arial,sans-serif" font-size="28" fill="#e4edf7">$5.11</text><text x="490" y="38.199999999999996" font-family="Arial,sans-serif" font-size="28" fill="#e4edf7">$5.23</text><circle cx="27" cy="229.8641975308643" r="16" fill="#091321" stroke="#ffcf63"/><text x="17" y="237.8641975308643" font-family="Arial,sans-serif" font-size="28" fill="#ffcf63">1</text><circle cx="27" cy="167.39506172839498" r="16" fill="#091321" stroke="#45c1ff"/><text x="17" y="175.39506172839498" font-family="Arial,sans-serif" font-size="28" fill="#45c1ff">2</text><text x="10" y="313.59999999999997" font-family="Arial,sans-serif" font-size="28" fill="#a9bdd4">Volume</text><circle cx="280.8" cy="87.19999999999999" r="16" fill="#091321" stroke="#ffcf63"/><text x="270.8" y="95.19999999999999" font-family="Arial,sans-serif" font-size="28" fill="#ffcf63">3</text></g><text x="40.44615384615385" y="697" font-family="Arial,sans-serif" font-size="28" fill="#a9bdd4">09:30</text><text x="258.7538461538461" y="697" font-family="Arial,sans-serif" font-size="28" fill="#a9bdd4">09:55</text><text x="433.3999999999999" y="697" font-family="Arial,sans-serif" font-size="28" fill="#a9bdd4">10:15</text><text x="20" y="762" font-family="Arial,sans-serif" font-size="28" fill="#ffcf63">1. Reaction low $4.84</text><text x="20" y="812" font-family="Arial,sans-serif" font-size="28" fill="#45c1ff">2. Tight stop $4.95</text><text x="20" y="862" font-family="Arial,sans-serif" font-size="28" fill="#ffcf63">3. Entry $5.00</text><text x="20" y="928" font-family="Arial,sans-serif" font-size="28" fill="#e4edf7">ATR 14 • dollars</text><svg x="20" y="949" width="480" height="280" viewBox="30 425.0 1040 200.0" preserveAspectRatio="none"><rect xmlns="http://www.w3.org/2000/svg" x="30" y="425" width="1040" height="200" rx="8" fill="#101e30" /><path xmlns="http://www.w3.org/2000/svg" d="M 46 602.0 H 992" stroke="#25374d" /><path xmlns="http://www.w3.org/2000/svg" d="M 46 565.75 H 992" stroke="#25374d" /><path xmlns="http://www.w3.org/2000/svg" d="M 46 529.5 H 992" stroke="#25374d" /><path xmlns="http://www.w3.org/2000/svg" d="M 46 493.25 H 992" stroke="#25374d" /><path xmlns="http://www.w3.org/2000/svg" d="M 46 457.0 H 992" stroke="#25374d" /><path xmlns="http://www.w3.org/2000/svg" d="M 46 602.0 H 992" stroke="#a9bdd4" stroke-dasharray="5 4" /><polyline xmlns="http://www.w3.org/2000/svg" points="93.30,479.12 187.90,479.12 282.50,479.12 377.10,479.12 471.70,479.12 566.30,479.12 660.90,479.12 755.50,482.04 850.10,481.84 944.70,484.57" fill="none" stroke="#45c1ff" stroke-width="2.7" /></svg><g transform="translate(20 949)"><text x="490" y="259.4" font-family="Arial,sans-serif" font-size="28" fill="#e4edf7">0.000</text><text x="490" y="208.64999999999998" font-family="Arial,sans-serif" font-size="28" fill="#e4edf7">0.035</text><text x="490" y="157.89999999999998" font-family="Arial,sans-serif" font-size="28" fill="#e4edf7">0.071</text><text x="490" y="107.14999999999999" font-family="Arial,sans-serif" font-size="28" fill="#e4edf7">0.106</text><text x="490" y="56.4" font-family="Arial,sans-serif" font-size="28" fill="#e4edf7">0.142</text></g><text x="20" y="1294" font-family="Arial,sans-serif" font-size="28" fill="#e4edf7">At entry: ATR $0.12 • tight</text><text x="20" y="1331" font-family="Arial,sans-serif" font-size="28" fill="#e4edf7">distance $0.05 • structure-based</text><text x="20" y="1368" font-family="Arial,sans-serif" font-size="28" fill="#e4edf7">distance $0.18 = 1.5 ATR</text><text x="20" y="1418" font-family="Arial,sans-serif" font-size="28" fill="#e4edf7">$60 / $0.18 = 333.33 → 333 shares •</text><text x="20" y="1455" font-family="Arial,sans-serif" font-size="28" fill="#e4edf7">$59.94 price risk • $1,665 position</text><text x="20" y="1492" font-family="Arial,sans-serif" font-size="28" fill="#e4edf7">value</text></svg>