<svg xmlns="http://www.w3.org/2000/svg" width="600" height="1183" viewBox="0 0 600 1183" role="img"><title>The entry changes the risk and remaining room</title><desc>Five-minute bars • blue = session VWAP • stop reference stays $4.17. Enlarged labels for small screens.</desc><rect width="600" height="1183" rx="12" fill="#091321"/><text x="20" y="77" font-family="Arial,sans-serif" font-size="40" fill="#e4edf7">The entry changes the risk</text><text x="20" y="126" font-family="Arial,sans-serif" font-size="40" fill="#e4edf7">and remaining room</text><text x="20" y="176" font-family="Arial,sans-serif" font-size="28" fill="#a9bdd4">Five-minute bars • blue = session</text><text x="20" y="213" font-family="Arial,sans-serif" font-size="28" fill="#a9bdd4">VWAP • stop reference stays $4.17</text><text x="20" y="263" font-family="Arial,sans-serif" font-size="28" fill="#ffcf63">Later entry $4.38</text><svg x="20" y="284" width="480" height="469" viewBox="30 110.0 1040 335.0" preserveAspectRatio="none"><rect xmlns="http://www.w3.org/2000/svg" x="30" y="110" width="1040" height="335" rx="8" fill="#101e30" /><path xmlns="http://www.w3.org/2000/svg" d="M 46 367.0 H 992" stroke="#25374d" /><path xmlns="http://www.w3.org/2000/svg" d="M 46 307.2500000000001 H 992" stroke="#25374d" /><path xmlns="http://www.w3.org/2000/svg" d="M 46 247.50000000000028 H 992" stroke="#25374d" /><path xmlns="http://www.w3.org/2000/svg" d="M 46 187.74999999999986 H 992" stroke="#25374d" /><path xmlns="http://www.w3.org/2000/svg" d="M 46 128.0 H 992" stroke="#25374d" /><path xmlns="http://www.w3.org/2000/svg" d="M 46 300.84821428571456 H 992" stroke="#f06a76" stroke-dasharray="6 5" /><path xmlns="http://www.w3.org/2000/svg" d="M 46 164.51388888888863 H 992" stroke="#ffcf63" stroke-dasharray="6 5" /><path xmlns="http://www.w3.org/2000/svg" d="M 85.41666666666666 300.84821428571456 V 333.4499007936505" stroke="#22c88a" stroke-width="2" /><rect xmlns="http://www.w3.org/2000/svg" x="75.91666666666666" y="312.70337301587307" width="19" height="8.891369047618866" fill="#22c88a" /><rect xmlns="http://www.w3.org/2000/svg" x="75.91666666666666" y="401.35135135135135" width="19" height="23.64864864864865" fill="#22c88a" opacity=".7" /><path xmlns="http://www.w3.org/2000/svg" d="M 164.25 300.84821428571456 V 342.3412698412699" stroke="#f06a76" stroke-width="2" /><rect xmlns="http://www.w3.org/2000/svg" x="154.75" y="312.70337301587307" width="19" height="17.7827380952383" fill="#f06a76" /><rect xmlns="http://www.w3.org/2000/svg" x="154.75" y="397.56756756756755" width="19" height="27.432432432432428" fill="#f06a76" opacity=".7" /><path xmlns="http://www.w3.org/2000/svg" d="M 243.08333333333331 306.77579365079436 V 342.3412698412699" stroke="#22c88a" stroke-width="2" /><rect xmlns="http://www.w3.org/2000/svg" x="233.58333333333331" y="318.63095238095286" width="19" height="11.855158730158507" fill="#22c88a" /><rect xmlns="http://www.w3.org/2000/svg" x="233.58333333333331" y="393.7837837837838" width="19" height="31.216216216216218" fill="#22c88a" opacity=".7" /><path xmlns="http://www.w3.org/2000/svg" d="M 321.91666666666663 277.13789682539704 V 330.48611111111137" stroke="#22c88a" stroke-width="2" /><rect xmlns="http://www.w3.org/2000/svg" x="312.41666666666663" y="288.99305555555554" width="19" height="29.63789682539732" fill="#22c88a" /><rect xmlns="http://www.w3.org/2000/svg" x="312.41666666666663" y="390.0" width="19" height="35.0" fill="#22c88a" opacity=".7" /><path xmlns="http://www.w3.org/2000/svg" d="M 400.75 247.50000000000028 V 300.84821428571405" stroke="#22c88a" stroke-width="2" /><rect xmlns="http://www.w3.org/2000/svg" x="391.25" y="259.3551587301588" width="19" height="29.63789682539675" fill="#22c88a" /><rect xmlns="http://www.w3.org/2000/svg" x="391.25" y="401.35135135135135" width="19" height="23.64864864864865" fill="#22c88a" opacity=".7" /><path xmlns="http://www.w3.org/2000/svg" d="M 479.5833333333333 247.50000000000028 V 277.1378968253965" stroke="#f06a76" stroke-width="2" /><rect xmlns="http://www.w3.org/2000/svg" x="470.0833333333333" y="259.3551587301588" width="19" height="5.927579365079225" fill="#f06a76" /><rect xmlns="http://www.w3.org/2000/svg" x="470.0833333333333" y="397.56756756756755" width="19" height="27.432432432432428" fill="#f06a76" opacity=".7" /><path xmlns="http://www.w3.org/2000/svg" d="M 558.4166666666666 253.4275793650795 V 294.92063492063534" stroke="#f06a76" stroke-width="2" /><rect xmlns="http://www.w3.org/2000/svg" x="548.9166666666666" y="265.282738095238" width="19" height="11.855158730159019" fill="#f06a76" /><rect xmlns="http://www.w3.org/2000/svg" x="548.9166666666666" y="393.7837837837838" width="19" height="31.216216216216218" fill="#f06a76" opacity=".7" /><path xmlns="http://www.w3.org/2000/svg" d="M 637.25 241.572420634921 V 288.99305555555554" stroke="#22c88a" stroke-width="2" /><rect xmlns="http://www.w3.org/2000/svg" x="627.75" y="253.4275793650795" width="19" height="23.710317460317526" fill="#22c88a" /><rect xmlns="http://www.w3.org/2000/svg" x="627.75" y="390.0" width="19" height="35.0" fill="#22c88a" opacity=".7" /><path xmlns="http://www.w3.org/2000/svg" d="M 716.0833333333333 217.86210317460348 V 265.282738095238" stroke="#22c88a" stroke-width="2" /><rect xmlns="http://www.w3.org/2000/svg" x="706.5833333333333" y="229.71726190476198" width="19" height="23.710317460317526" fill="#22c88a" /><rect xmlns="http://www.w3.org/2000/svg" x="706.5833333333333" y="401.35135135135135" width="19" height="23.64864864864865" fill="#22c88a" opacity=".7" /><path xmlns="http://www.w3.org/2000/svg" d="M 794.9166666666666 194.15178571428595 V 241.5724206349205" stroke="#22c88a" stroke-width="2" /><rect xmlns="http://www.w3.org/2000/svg" x="785.4166666666666" y="206.00694444444446" width="19" height="23.710317460317526" fill="#22c88a" /><rect xmlns="http://www.w3.org/2000/svg" x="785.4166666666666" y="397.56756756756755" width="19" height="27.432432432432428" fill="#22c88a" opacity=".7" /><path xmlns="http://www.w3.org/2000/svg" d="M 873.75 164.51388888888917 V 217.86210317460296" stroke="#22c88a" stroke-width="2" /><rect xmlns="http://www.w3.org/2000/svg" x="864.25" y="176.36904761904765" width="19" height="29.63789682539681" fill="#22c88a" /><rect xmlns="http://www.w3.org/2000/svg" x="864.25" y="393.7837837837838" width="19" height="31.216216216216218" fill="#22c88a" opacity=".7" /><path xmlns="http://www.w3.org/2000/svg" d="M 952.5833333333333 152.65873015873012 V 188.22420634920616" stroke="#22c88a" stroke-width="2" /><rect xmlns="http://www.w3.org/2000/svg" x="943.0833333333333" y="164.51388888888863" width="19" height="11.855158730159019" fill="#22c88a" /><rect xmlns="http://www.w3.org/2000/svg" x="943.0833333333333" y="390.0" width="19" height="35.0" fill="#22c88a" opacity=".7" /><polyline xmlns="http://www.w3.org/2000/svg" points="85.42,283.30 164.25,283.49 243.08,283.69 321.92,283.78 400.75,283.72 479.58,283.63 558.42,283.59 637.25,283.46 716.08,283.28 794.92,282.97 873.75,282.48 952.58,281.84" fill="none" stroke="#45c1ff" stroke-width="2.6" /><circle xmlns="http://www.w3.org/2000/svg" cx="637.25" cy="253.4275793650795" r="4" fill="#ffcf63" /><path xmlns="http://www.w3.org/2000/svg" d="M 637.25 253.4275793650795 L 602.25 217.4275793650795" stroke="#ffcf63" /><circle xmlns="http://www.w3.org/2000/svg" cx="873.75" cy="176.36904761904765" r="4" fill="#ffcf63" /><path xmlns="http://www.w3.org/2000/svg" d="M 873.75 176.36904761904765 L 773.75 140.36904761904765" stroke="#ffcf63" /></svg><g transform="translate(20 284)"><text x="490" y="372.79999999999995" font-family="Arial,sans-serif" font-size="28" fill="#e4edf7">$4.06</text><text x="490" y="289.15000000000015" font-family="Arial,sans-serif" font-size="28" fill="#e4edf7">$4.16</text><text x="490" y="205.5000000000004" font-family="Arial,sans-serif" font-size="28" fill="#e4edf7">$4.26</text><text x="490" y="121.8499999999998" font-family="Arial,sans-serif" font-size="28" fill="#e4edf7">$4.36</text><text x="490" y="38.199999999999996" font-family="Arial,sans-serif" font-size="28" fill="#e4edf7">$4.46</text><circle cx="27" cy="252.1875000000004" r="16" fill="#091321" stroke="#f06a76"/><text x="17" y="260.1875000000004" font-family="Arial,sans-serif" font-size="28" fill="#f06a76">1</text><circle cx="27" cy="61.31944444444407" r="16" fill="#091321" stroke="#ffcf63"/><text x="17" y="69.31944444444407" font-family="Arial,sans-serif" font-size="28" fill="#ffcf63">2</text><text x="10" y="390.59999999999997" font-family="Arial,sans-serif" font-size="28" fill="#a9bdd4">Volume</text><circle cx="267.5769230769231" cy="133.9986111111113" r="16" fill="#091321" stroke="#ffcf63"/><text x="257.5769230769231" y="141.9986111111113" font-family="Arial,sans-serif" font-size="28" fill="#ffcf63">3</text></g><text x="36.80769230769231" y="787" font-family="Arial,sans-serif" font-size="28" fill="#a9bdd4">11:30</text><text x="255.11538461538458" y="787" font-family="Arial,sans-serif" font-size="28" fill="#a9bdd4">12:00</text><text x="437.0384615384615" y="787" font-family="Arial,sans-serif" font-size="28" fill="#a9bdd4">12:25</text><text x="20" y="852" font-family="Arial,sans-serif" font-size="28" fill="#f06a76">1. Stop reference $4.17</text><text x="20" y="902" font-family="Arial,sans-serif" font-size="28" fill="#ffcf63">2. Resistance $4.40</text><text x="20" y="952" font-family="Arial,sans-serif" font-size="28" fill="#ffcf63">3. Entry $4.25</text><text x="20" y="1018" font-family="Arial,sans-serif" font-size="28" fill="#e4edf7">500 shares at $4.25: $40 price risk</text><text x="20" y="1055" font-family="Arial,sans-serif" font-size="28" fill="#e4edf7">/ $75 to resistance</text><text x="20" y="1105" font-family="Arial,sans-serif" font-size="28" fill="#e4edf7">500 shares at $4.38: $105 price</text><text x="20" y="1142" font-family="Arial,sans-serif" font-size="28" fill="#e4edf7">risk / $10 to resistance</text></svg>