<svg xmlns="http://www.w3.org/2000/svg" width="960" height="540" viewBox="0 0 960 540" role="img" aria-labelledby="title desc"><title id="title">Ascending triangle context</title><desc id="desc">Candlestick chart showing flat resistance, higher lows, compression, volume, and failed-breakout context.</desc><rect width="960" height="540" fill="#07111f"/><rect x="48" y="40" width="864" height="350" rx="10" fill="#0b1626" stroke="#1b3558"/><g stroke="#19304d"><path d="M80 100H880M80 160H880M80 220H880M80 280H880M80 340H880"/></g><rect x="100" y="132" width="535" height="30" fill="#1f6feb" opacity=".18"/><text x="112" y="122" fill="#9cc7ff" font-family="Arial" font-size="18">Repeated resistance area</text><path d="M130 318L610 180" stroke="#9cc7ff" stroke-width="3"/><g stroke-width="3" stroke-linecap="round"><g stroke="#22c55e" fill="#22c55e"><line x1="135" y1="278" x2="135" y2="334"/><rect x="124" y="292" width="22" height="28" rx="2"/></g><g stroke="#22c55e" fill="#22c55e"><line x1="205" y1="220" x2="205" y2="302"/><rect x="194" y="238" width="22" height="48" rx="2"/></g><g stroke="#ef4444" fill="#ef4444"><line x1="275" y1="132" x2="275" y2="230"/><rect x="264" y="150" width="22" height="50" rx="2"/></g><g stroke="#22c55e" fill="#22c55e"><line x1="345" y1="206" x2="345" y2="270"/><rect x="334" y="220" width="22" height="34" rx="2"/></g><g stroke="#22c55e" fill="#22c55e"><line x1="415" y1="132" x2="415" y2="220"/><rect x="404" y="150" width="22" height="46" rx="2"/></g><g stroke="#22c55e" fill="#22c55e"><line x1="485" y1="182" x2="485" y2="238"/><rect x="474" y="195" width="22" height="26" rx="2"/></g><g stroke="#ef4444" fill="#ef4444"><line x1="555" y1="118" x2="555" y2="218"/><rect x="544" y="140" width="22" height="60" rx="2"/></g></g><text x="650" y="170" fill="#d6e4ff" font-family="Arial" font-size="19">Higher lows press the level</text><text x="650" y="210" fill="#d6e4ff" font-family="Arial" font-size="18">Breaks can fail back inside</text><rect x="48" y="414" width="864" height="82" rx="10" fill="#0b1626" stroke="#1b3558"/><g><rect x="128" y="463" width="22" height="20" fill="#22c55e" opacity=".75"/><rect x="198" y="450" width="22" height="33" fill="#22c55e" opacity=".75"/><rect x="268" y="431" width="22" height="52" fill="#ef4444" opacity=".75"/><rect x="408" y="444" width="22" height="39" fill="#22c55e" opacity=".75"/><rect x="548" y="420" width="22" height="63" fill="#ef4444" opacity=".75"/></g><text x="620" y="464" fill="#d6e4ff" font-family="Arial" font-size="19">Pressure can fail at the level</text></svg>
