<svg xmlns="http://www.w3.org/2000/svg" role="img" viewBox="0 0 960 916.2072410536257">
  <title>Double bottom</title>
  <rect width="960" height="916.2072410536257" fill="#10151e" />
  <text x="28" y="79.75384615384615" font-family="Arial, sans-serif" font-size="66.46153846153847" font-weight="700" fill="#e1e7ef">Double bottom</text>
  <svg x="0" y="94.75384615384615" width="960" height="560.5457025920873" viewBox="111 61 733 428">
    <rect width="960" height="610" fill="#07111f" />
    <rect x="64" y="54" width="832" height="432" rx="12" fill="#0b1626" stroke="#1b3558" stroke-width="2" />
    <g stroke="#18304d" stroke-width="1.5" opacity=".8">
      <path d="M104 142H856M104 230H856M104 318H856M104 406H856" />
      <path d="M200 82V458M320 82V458M440 82V458M560 82V458M680 82V458M800 82V458" />
    </g>
    <path d="M148 368L810 368" fill="none" stroke="#facc15" stroke-width="4" stroke-linecap="round" opacity="0.9" stroke-dasharray="12 12" />
    <path d="M180 226L760 226" fill="none" stroke="#8aa4c8" stroke-width="4" stroke-linecap="round" opacity="0.75" stroke-dasharray="10 10" />
    <path d="M170 206C240 378 310 382 380 220C450 372 545 380 628 218C682 196 730 154 780 124" fill="none" stroke="#38bdf8" stroke-width="5" stroke-linecap="round" stroke-linejoin="round" opacity="0.95" />
    <ellipse cx="285" cy="366" rx="70" ry="86" fill="none" stroke="#38bdf8" stroke-width="5" opacity="0.95" />
    <ellipse cx="525" cy="366" rx="70" ry="86" fill="none" stroke="#38bdf8" stroke-width="5" opacity="0.95" />
    <g opacity="1">
      <line x1="190" y1="174" x2="190" y2="296" stroke="#d6e4ff" stroke-width="5" stroke-linecap="round" />
      <rect x="173" y="206" width="34" height="54" fill="#ef4444" />
    </g>
    <g opacity="1">
      <line x1="285" y1="294" x2="285" y2="424" stroke="#d6e4ff" stroke-width="5" stroke-linecap="round" />
      <rect x="264" y="328" width="42" height="64" fill="#22c55e" />
    </g>
    <g opacity="1">
      <line x1="380" y1="182" x2="380" y2="314" stroke="#d6e4ff" stroke-width="5" stroke-linecap="round" />
      <rect x="363" y="216" width="34" height="58" fill="#22c55e" />
    </g>
    <g opacity="1">
      <line x1="525" y1="292" x2="525" y2="424" stroke="#d6e4ff" stroke-width="5" stroke-linecap="round" />
      <rect x="504" y="326" width="42" height="64" fill="#22c55e" />
    </g>
    <g opacity="1">
      <line x1="625" y1="178" x2="625" y2="302" stroke="#d6e4ff" stroke-width="5" stroke-linecap="round" />
      <rect x="608" y="208" width="34" height="58" fill="#22c55e" />
    </g>
    <g opacity="1">
      <line x1="725" y1="98" x2="725" y2="222" stroke="#d6e4ff" stroke-width="5" stroke-linecap="round" />
      <rect x="708" y="126" width="34" height="64" fill="#22c55e" />
    </g>
  </svg>
  <text x="28" y="721.761087207472" font-family="Arial, sans-serif" font-size="44.30769230769231" fill="#e1e7ef">Blue circles: turning points · Gray</text>
  <text x="28" y="781.5764718228565" font-family="Arial, sans-serif" font-size="44.30769230769231" fill="#e1e7ef">dashed line: neckline</text>
  <text x="28" y="841.3918564382411" font-family="Arial, sans-serif" font-size="44.30769230769231" fill="#e1e7ef">Yellow dashed line: support</text>
</svg>