<svg xmlns="http://www.w3.org/2000/svg" width="960" height="540" viewBox="0 0 960 540" aria-hidden="true">
  <rect width="960" height="540" fill="#07111f"/>
  <rect x="64" y="54" width="832" height="432" rx="12" fill="#0b1626" stroke="#1b3558" stroke-width="2"/>
  <g stroke="#18304d" stroke-width="1.5" opacity=".8">
    <path d="M104 142H856M104 230H856M104 318H856M104 406H856"/>
    <path d="M200 82V458M320 82V458M440 82V458M560 82V458M680 82V458M800 82V458"/>
  </g>
  <path d="M148 368L810 368" fill="none" stroke="#facc15" stroke-width="4" stroke-linecap="round" opacity="0.9" stroke-dasharray="12 12"/>
  <path d="M180 226L760 226" fill="none" stroke="#8aa4c8" stroke-width="4" stroke-linecap="round" opacity="0.75" stroke-dasharray="10 10"/>
  <path d="M170 206C240 378 310 382 380 220C450 372 545 380 628 218C682 196 730 154 780 124" fill="none" stroke="#38bdf8" stroke-width="5" stroke-linecap="round" stroke-linejoin="round" opacity="0.95"/>
  <ellipse cx="285" cy="366" rx="70" ry="86" fill="none" stroke="#38bdf8" stroke-width="5" opacity="0.95"/>
  <ellipse cx="525" cy="366" rx="70" ry="86" fill="none" stroke="#38bdf8" stroke-width="5" opacity="0.95"/>
  <g opacity="1"><line x1="190" y1="174" x2="190" y2="296" stroke="#d6e4ff" stroke-width="5" stroke-linecap="round"/><rect x="173" y="206" width="34" height="54" fill="#ef4444"/></g>
  <g opacity="1"><line x1="285" y1="294" x2="285" y2="424" stroke="#d6e4ff" stroke-width="5" stroke-linecap="round"/><rect x="264" y="328" width="42" height="64" fill="#22c55e"/></g>
  <g opacity="1"><line x1="380" y1="182" x2="380" y2="314" stroke="#d6e4ff" stroke-width="5" stroke-linecap="round"/><rect x="363" y="216" width="34" height="58" fill="#22c55e"/></g>
  <g opacity="1"><line x1="525" y1="292" x2="525" y2="424" stroke="#d6e4ff" stroke-width="5" stroke-linecap="round"/><rect x="504" y="326" width="42" height="64" fill="#22c55e"/></g>
  <g opacity="1"><line x1="625" y1="178" x2="625" y2="302" stroke="#d6e4ff" stroke-width="5" stroke-linecap="round"/><rect x="608" y="208" width="34" height="58" fill="#22c55e"/></g>
  <g opacity="1"><line x1="725" y1="98" x2="725" y2="222" stroke="#d6e4ff" stroke-width="5" stroke-linecap="round"/><rect x="708" y="126" width="34" height="64" fill="#22c55e"/></g>
</svg>
