<svg xmlns="http://www.w3.org/2000/svg" role="img" aria-labelledby="title desc" viewBox="0 0 760 1087.4772727272727">
  <title id="title">Pivot Level Reaction Map</title>
  <desc id="desc">Educational candlestick chart showing price reacting around a clear pivot level zone with volume context.</desc>
  <rect width="760" height="1087.4772727272727" rx="18" fill="#07111f" />
  <text x="36" y="54" fill="#e8f1ff" font-family="Arial, sans-serif" font-size="53" font-weight="700">Pivot Level Reaction</text>
  <text x="36" y="120.25" fill="#e8f1ff" font-family="Arial, sans-serif" font-size="53" font-weight="700">Map</text>
  <text x="36" y="194.5" fill="#8ea6c8" font-family="Arial, sans-serif" font-size="36">A pivot zone is useful when price</text>
  <text x="36" y="239.5" fill="#8ea6c8" font-family="Arial, sans-serif" font-size="36">reacts around it more than once.</text>
  <svg x="0" y="288.5" width="760" height="528.9772727272727" viewBox="28 40 704 490.0" overflow="hidden">
    <rect x="28" y="28" width="704" height="318" rx="14" fill="#0b1626" stroke="#1f3554" />
    <g stroke="#18304e" stroke-width="1">
      <line x1="58" y1="116" x2="704" y2="116" />
      <line x1="58" y1="166" x2="704" y2="166" />
      <line x1="58" y1="216" x2="704" y2="216" />
      <line x1="58" y1="266" x2="704" y2="266" />
    </g>
    <rect x="74" y="198" width="612" height="36" fill="#1d4ed8" opacity=".18" />
    <line x1="74" y1="198" x2="686" y2="198" stroke="#60a5fa" stroke-width="2" stroke-dasharray="7 7" />
    <line x1="74" y1="234" x2="686" y2="234" stroke="#60a5fa" stroke-width="2" stroke-dasharray="7 7" />
    <g stroke-linecap="round" stroke-width="3">
      <g stroke="#21c784" fill="#21c784">
        <line x1="96" y1="250" x2="96" y2="314" />
        <rect x="86" y="268" width="20" height="28" />
        <line x1="150" y1="210" x2="150" y2="284" />
        <rect x="140" y="230" width="20" height="34" />
        <line x1="204" y1="190" x2="204" y2="260" />
        <rect x="194" y="210" width="20" height="32" />
        <line x1="312" y1="214" x2="312" y2="282" />
        <rect x="302" y="232" width="20" height="30" />
        <line x1="420" y1="190" x2="420" y2="258" />
        <rect x="410" y="208" width="20" height="32" />
        <line x1="474" y1="156" x2="474" y2="230" />
        <rect x="464" y="176" width="20" height="34" />
        <line x1="528" y1="138" x2="528" y2="210" />
        <rect x="518" y="158" width="20" height="34" />
      </g>
      <g stroke="#ef4444" fill="#ef4444">
        <line x1="258" y1="166" x2="258" y2="238" />
        <rect x="248" y="184" width="20" height="34" />
        <line x1="366" y1="158" x2="366" y2="236" />
        <rect x="356" y="178" width="20" height="38" />
        <line x1="582" y1="136" x2="582" y2="224" />
        <rect x="572" y="158" width="20" height="46" />
        <line x1="636" y1="190" x2="636" y2="268" />
        <rect x="626" y="210" width="20" height="38" />
      </g>
    </g>
    <g font-family="Arial, sans-serif" font-size="13" font-weight="700">
      <path d="M178 292 L198 236" stroke="#bbf7d0" stroke-width="2" />
      <path d="M288 160 L266 188" stroke="#fecaca" stroke-width="2" />
      <path d="M480 150 L480 174" stroke="#bbf7d0" stroke-width="2" />
    </g>
    <rect x="28" y="385.0" width="704" height="135" rx="10" fill="#0b1626" stroke="#1f3554" />
    <text x="44" y="410.0" font-family="Arial, sans-serif" font-size="36" fill="#e1e7ef">Volume</text>
    <line x1="58" y1="501.0" x2="704" y2="501.0" stroke="#303a49" />
    <rect x="87.0" y="475.5652173913044" width="18" height="25.434782608695652" fill="#21c784" />
    <rect x="141.0" y="478.39130434782606" width="18" height="22.608695652173914" fill="#21c784" />
    <rect x="195.0" y="469.9130434782609" width="18" height="31.086956521739133" fill="#21c784" />
    <rect x="249.0" y="452.95652173913044" width="18" height="48.04347826086956" fill="#ef4444" />
    <rect x="303.0" y="475.5652173913044" width="18" height="25.434782608695652" fill="#21c784" />
    <rect x="357.0" y="478.39130434782606" width="18" height="22.608695652173914" fill="#ef4444" />
    <rect x="411.0" y="467.0869565217391" width="18" height="33.91304347826087" fill="#21c784" />
    <rect x="465.0" y="436.0" width="18" height="65.0" fill="#21c784" />
    <rect x="519.0" y="461.4347826086956" width="18" height="39.56521739130435" fill="#21c784" />
    <rect x="573.0" y="475.5652173913044" width="18" height="25.434782608695652" fill="#ef4444" />
    <rect x="627.0" y="452.95652173913044" width="18" height="48.04347826086956" fill="#ef4444" />
  </svg>
  <text x="36" y="852.4772727272727" fill="#9cc8ff" font-family="Arial, sans-serif" font-size="36">Pivot zone from visible reactions</text>
  <text x="36" y="907.4772727272727" fill="#bbf7d0" font-family="Arial, sans-serif" font-size="36">Hold area</text>
  <text x="36" y="962.4772727272727" fill="#fecaca" font-family="Arial, sans-serif" font-size="36">Reject area</text>
  <text x="36" y="1017.4772727272727" fill="#bbf7d0" font-family="Arial, sans-serif" font-size="36">Reclaim area</text>
</svg>